<?xml version="1.0" encoding="UTF-8"?>
<svg version="1.1" xmlns="http://www.w3.org/2000/svg" width="700" height="700">
<path d="M0 0 C0.84809235 -0.0049649 1.69618469 -0.00992981 2.56997681 -0.01504517 C5.3552534 -0.02956445 8.14047315 -0.03644982 10.92578125 -0.04199219 C12.35934464 -0.04623325 12.35934464 -0.04623325 13.8218689 -0.05056 C18.87441278 -0.06550734 23.9269284 -0.07476629 28.97949219 -0.07910156 C34.1880158 -0.08459514 39.39627919 -0.1086546 44.60472107 -0.13707352 C48.62138625 -0.15572089 52.6379888 -0.16090651 56.6546936 -0.16243744 C58.57477244 -0.16545719 60.49485036 -0.17346279 62.41488647 -0.18662262 C65.10231277 -0.20373526 67.78910338 -0.20179077 70.4765625 -0.1953125 C71.26326324 -0.20452728 72.04996399 -0.21374207 72.86050415 -0.22323608 C80.14301097 -0.16842525 85.90659899 1.97755284 91.23828125 7.16113281 C95.17807566 12.595332 95.00929295 18.71582153 94.23828125 25.16113281 C92.50124517 30.57833008 88.7166895 33.92143323 84.23828125 37.16113281 C80.66500556 38.35222471 77.40416995 38.3213012 73.68432617 38.3347168 C72.53234238 38.34474731 72.53234238 38.34474731 71.35708618 38.35498047 C69.68745192 38.36903286 68.01779843 38.38092632 66.34813499 38.39092827 C63.69339036 38.40738375 61.03878472 38.4306307 58.3841095 38.45582581 C50.83500166 38.52642423 43.28583287 38.58628559 35.73657227 38.63793945 C31.11645144 38.67002965 26.49648428 38.71139121 21.87648964 38.75813484 C20.12691372 38.77399429 18.3773024 38.78638837 16.62767601 38.79504204 C-1.89147486 38.88785478 -20.02933956 39.53337922 -34.76171875 52.16113281 C-35.77234375 52.90363281 -36.78296875 53.64613281 -37.82421875 54.41113281 C-49.17879623 64.1304043 -53.56237967 78.80293974 -54.76171875 93.16113281 C-55.04350294 98.64163949 -55.0405653 104.12700275 -55.03611374 109.61346245 C-55.03513262 112.28404572 -55.04826955 114.95424368 -55.06509399 117.62477112 C-55.11092736 125.20579245 -55.13599879 132.78676423 -55.14257812 140.36791992 C-55.14759909 145.03320192 -55.17185693 149.69806646 -55.20790482 154.36320686 C-55.21766826 156.12973586 -55.22005372 157.89632244 -55.21473312 159.66287041 C-55.20764151 162.12946175 -55.22497959 164.59480584 -55.24755859 167.0612793 C-55.23938614 167.7808783 -55.23121368 168.50047729 -55.22279358 169.24188232 C-55.32100401 175.29490193 -57.27574601 179.45026768 -61.359375 183.90332031 C-67.32358434 188.5156422 -72.40404506 188.88483842 -79.76171875 188.16113281 C-85.10380235 186.53374311 -88.74295189 183.92149594 -91.76171875 179.16113281 C-94.053603 174.68585205 -94.05143412 170.39722155 -94.03637695 165.47802734 C-94.04148788 164.61381668 -94.04659882 163.74960602 -94.05186462 162.85920715 C-94.06575295 160.00404915 -94.06480287 157.14913309 -94.0625 154.29394531 C-94.06639045 152.29678255 -94.07072584 150.2996206 -94.07548523 148.30245972 C-94.0829481 144.11111781 -94.08265793 139.91986009 -94.07739258 135.72851562 C-94.07163115 130.39514834 -94.08844767 125.0621321 -94.11173725 119.72882271 C-94.12658602 115.59858227 -94.12733069 111.46842388 -94.12422752 107.33816147 C-94.12473626 105.37446275 -94.12988857 103.41075888 -94.14003944 101.44708633 C-94.25891006 75.2104536 -88.18185474 52.56244672 -70.76171875 32.16113281 C-70.1275 31.33355469 -69.49328125 30.50597656 -68.83984375 29.65332031 C-52.46974599 10.02151134 -24.98632484 0.03550421 0 0 Z " fill="#000000" transform="translate(180.76171875,36.8388671875)"/>
<path d="M0 0 C4.36775158 3.14884416 7.96773395 6.77820184 9.6875 11.9375 C9.79694818 14.46399134 9.85197006 16.96436856 9.86108398 19.49145508 C9.867771 20.25944427 9.87445801 21.02743347 9.88134766 21.81869507 C9.89540005 23.48832933 9.90729351 25.15798282 9.91729546 26.82764626 C9.93375094 29.48239089 9.95699789 32.13699653 9.98219299 34.79167175 C10.05279142 42.34077959 10.11265278 49.88994838 10.16430664 57.43920898 C10.19639683 62.05932981 10.23775839 66.67929697 10.28450203 71.29929161 C10.30036148 73.04886753 10.31275556 74.79847885 10.32140923 76.54810524 C10.42142259 96.50401279 11.76225729 115.2746611 25.6875 130.9375 C41.84041616 146.62734773 60.25255526 148.04953266 81.56227875 148.13673019 C84.21959003 148.14865156 86.87674823 148.16813082 89.53399658 148.18984985 C97.08169473 148.25106389 104.62936833 148.30560955 112.17724609 148.33886719 C116.81194515 148.35982725 121.44634903 148.39512213 126.08087921 148.43962479 C127.83985169 148.45375274 129.59887619 148.46249997 131.35790253 148.46567917 C133.81541395 148.47059644 136.27214073 148.49376866 138.72949219 148.52099609 C139.80968376 148.51648689 139.80968376 148.51648689 140.91169739 148.5118866 C146.40131973 148.60205755 150.48774798 149.90837864 154.55078125 153.65625 C155.02902344 154.2440625 155.50726563 154.831875 156 155.4375 C156.49113281 156.0253125 156.98226562 156.613125 157.48828125 157.21875 C160.8543377 162.04306543 160.31209384 168.33744841 159.6875 173.9375 C157.56642791 179.61502485 154.0359133 183.09259931 148.6875 185.9375 C144.62467385 187.16351231 140.61895802 187.09262534 136.40917969 187.09863281 C135.57598206 187.10359772 134.74278442 187.10856262 133.88433838 187.11367798 C131.12600879 187.12828522 128.36773693 187.13510329 125.609375 187.140625 C124.18853481 187.14486607 124.18853481 187.14486607 122.73899078 187.14919281 C117.71498841 187.16418881 112.69101473 187.17341246 107.66699219 187.17773438 C102.51643693 187.18318406 97.36615073 187.20713606 92.21567917 187.23570633 C88.22437831 187.25449767 84.23313972 187.25954725 80.2417984 187.26107025 C78.34590452 187.26406611 76.4500109 187.27198858 74.55416107 187.28525543 C48.10032076 187.4569853 22.41707372 181.78290951 2.72265625 162.953125 C2.05105469 162.28796875 1.37945312 161.6228125 0.6875 160.9375 C-0.17875 160.133125 -1.045 159.32875 -1.9375 158.5 C-22.57213864 136.23631094 -28.80770508 110.8537064 -28.74609375 81.1875 C-28.75066758 79.23412904 -28.75597667 77.28075968 -28.76197815 75.32739258 C-28.77083991 71.26653429 -28.76856118 67.20587347 -28.75854492 63.14501953 C-28.74698803 57.95577013 -28.76740435 52.76719449 -28.79646206 47.57803345 C-28.81483462 43.55787891 -28.81453077 39.53788619 -28.80882454 35.5177002 C-28.80867186 33.60403489 -28.81467172 31.69035825 -28.82711601 29.7767334 C-28.84206706 27.10463197 -28.831324 24.43378214 -28.81420898 21.76171875 C-28.82387695 20.98340195 -28.83354492 20.20508514 -28.84350586 19.40318298 C-28.75957923 13.11573365 -26.98757778 7.64709491 -22.49609375 3.09765625 C-21.91988281 2.73542969 -21.34367187 2.37320312 -20.75 2 C-19.88181641 1.42958984 -19.88181641 1.42958984 -18.99609375 0.84765625 C-13.2746131 -2.24539478 -6.05201796 -1.94121331 0 0 Z " fill="#000000" transform="translate(115.3125,376.0625)"/>
<path d="M0 0 C0.83319763 -0.0049649 1.66639526 -0.00992981 2.52484131 -0.01504517 C5.2831709 -0.02965241 8.04144275 -0.03647048 10.79980469 -0.04199219 C12.22064487 -0.04623325 12.22064487 -0.04623325 13.6701889 -0.05056 C18.69419127 -0.065556 23.71816496 -0.07477965 28.7421875 -0.07910156 C33.89274276 -0.08455124 39.04302896 -0.10850324 44.19350052 -0.13707352 C48.18480137 -0.15586485 52.17603997 -0.16091443 56.16738129 -0.16243744 C58.06327517 -0.16543329 59.95916878 -0.17335577 61.85501862 -0.18662262 C88.81031894 -0.3616078 113.19297277 5.64135134 133.72167969 24.16113281 C134.50285156 24.85980469 135.28402344 25.55847656 136.08886719 26.27832031 C154.35813362 43.53613946 164.06269628 67.7752676 164.92469788 92.68060303 C165.04104916 97.80657008 165.05346374 102.93248355 165.05761719 108.05957031 C165.06406036 109.94853817 165.07078979 111.83750507 165.07778931 113.72647095 C165.08967748 117.6580029 165.09347824 121.58944747 165.09228516 125.52099609 C165.09208085 130.544371 165.11953513 135.56718727 165.15382957 140.59042931 C165.17610288 144.48017943 165.18012279 148.36979424 165.1790657 152.25960159 C165.18141513 154.11187312 165.19020129 155.96414874 165.20573044 157.81635666 C165.22542782 160.40482542 165.21954137 162.99207612 165.20751953 165.58056641 C165.21875854 166.33397308 165.22999756 167.08737976 165.24157715 167.86361694 C165.16862412 174.07609758 163.33617858 179.51289845 158.90527344 184.00097656 C158.3290625 184.36320313 157.75285156 184.72542969 157.15917969 185.09863281 C156.29099609 185.66904297 156.29099609 185.66904297 155.40527344 186.25097656 C150.45600723 188.92656595 145.18706344 188.57731864 139.72167969 188.16113281 C134.27297565 186.41343529 130.9362616 182.76835119 127.72167969 178.16113281 C126.53058779 174.58785713 126.5615113 171.32702151 126.5480957 167.60717773 C126.54140869 166.83918854 126.53472168 166.07119934 126.52783203 165.27993774 C126.51377964 163.61030349 126.50188618 161.94064999 126.49188423 160.27098656 C126.47542875 157.61624192 126.4521818 154.96163628 126.42698669 152.30696106 C126.35638827 144.75785322 126.29652691 137.20868443 126.24487305 129.65942383 C126.21278285 125.039303 126.17142129 120.41933584 126.12467766 115.7993412 C126.10881821 114.04976529 126.09642413 112.30015397 126.08777046 110.55052757 C125.99189778 91.4208211 125.23311367 73.05513213 111.72167969 58.16113281 C110.54605469 56.86175781 110.54605469 56.86175781 109.34667969 55.53613281 C108.48042969 54.75238281 107.61417969 53.96863281 106.72167969 53.16113281 C105.80515625 52.3296875 105.80515625 52.3296875 104.87011719 51.48144531 C90.48325963 39.29185327 72.38283434 38.87652836 54.42398071 38.85617256 C51.78307912 38.8524494 49.14253359 38.83557107 46.50170898 38.81541443 C39.00527551 38.7605179 31.50879583 38.72920323 24.01220703 38.70483398 C19.39885242 38.68894639 14.78576329 38.65873923 10.17254639 38.6200695 C8.42473161 38.60845627 6.67686947 38.60248948 4.92901611 38.60238838 C2.49113121 38.60219593 0.05398133 38.58390807 -2.38378906 38.56176758 C-3.0976326 38.56634476 -3.81147614 38.57092194 -4.54695129 38.57563782 C-10.01984442 38.49677804 -14.09266998 37.17724633 -18.14160156 33.44238281 C-18.61984375 32.85457031 -19.09808594 32.26675781 -19.59082031 31.66113281 C-20.08195312 31.07332031 -20.57308594 30.48550781 -21.07910156 29.87988281 C-24.44515801 25.05556738 -23.90291415 18.76118441 -23.27832031 13.16113281 C-21.15724823 7.48360796 -17.62673361 4.0060335 -12.27832031 1.16113281 C-8.21549416 -0.0648795 -4.20977833 0.00600747 0 0 Z " fill="#000000" transform="translate(448.2783203125,36.8388671875)"/>
<path d="M0 0 C5.51657826 3.21518365 7.9090003 7.23104906 9.5625 13.3125 C9.75160186 16.18111496 9.84630844 18.95117015 9.8371582 21.81787109 C9.84226913 22.65136078 9.84738007 23.48485046 9.85264587 24.34359741 C9.86650852 27.09111791 9.86558602 29.83838623 9.86328125 32.5859375 C9.86717317 34.51201468 9.87150886 36.43809102 9.87626648 38.36416626 C9.88372392 42.40410132 9.88344317 46.44394902 9.87817383 50.48388672 C9.8724139 55.61871452 9.88922787 60.75317752 9.9125185 65.88794518 C9.92738413 69.87067703 9.92810969 73.85332395 9.92500877 77.83607864 C9.9255167 79.72638286 9.93065317 81.61669251 9.94082069 83.50696945 C10.08273965 113.61023765 1.90031839 138.09726092 -19 160.3125 C-36.30262522 177.16467403 -60.14121971 186.43944771 -84.19921875 186.47363281 C-85.0473111 186.47859772 -85.89540344 186.48356262 -86.76919556 186.48867798 C-89.55447215 186.50319726 -92.3396919 186.51008264 -95.125 186.515625 C-96.55856339 186.51986607 -96.55856339 186.51986607 -98.02108765 186.52419281 C-103.07363153 186.53914016 -108.12614715 186.5483991 -113.17871094 186.55273438 C-118.38723455 186.55822795 -123.59549794 186.58228742 -128.80393982 186.61070633 C-132.820605 186.6293537 -136.83720755 186.63453932 -140.85391235 186.63607025 C-142.77399119 186.63909001 -144.69406911 186.6470956 -146.61410522 186.66025543 C-149.30153152 186.67736807 -151.98832213 186.67542358 -154.67578125 186.66894531 C-155.46248199 186.6781601 -156.24918274 186.68737488 -157.0597229 186.6968689 C-164.34222972 186.64205806 -170.10581774 184.49607998 -175.4375 179.3125 C-179.39862654 173.84887718 -179.07054297 167.78558725 -178.4375 161.3125 C-176.72097789 155.86001802 -173.04130327 152.5246991 -168.4375 149.3125 C-164.86882717 148.12294239 -161.6143706 148.1523431 -157.89941406 148.13891602 C-157.13303116 148.132229 -156.36664825 148.12554199 -155.57704163 148.11865234 C-153.91068359 148.10459934 -152.24430628 148.09270607 -150.57791901 148.08270454 C-147.92710034 148.06624465 -145.27642062 148.04299676 -142.62567139 148.01780701 C-135.08759571 147.94722639 -127.54945862 147.88739522 -120.01123047 147.83569336 C-115.39758931 147.80357196 -110.78410105 147.76220206 -106.17058563 147.71549797 C-104.42462723 147.69965474 -102.67863361 147.68725354 -100.93262482 147.67859077 C-82.59802405 147.58642736 -64.92009976 147.30876795 -50.27734375 134.765625 C-48.4375 133.3125 -48.4375 133.3125 -45.4375 132.3125 C-45.1075 131.3225 -44.7775 130.3325 -44.4375 129.3125 C-43.7775 129.3125 -43.1175 129.3125 -42.4375 129.3125 C-42.16679688 128.74402344 -41.89609375 128.17554688 -41.6171875 127.58984375 C-40.39988243 125.23988066 -39.00585401 123.09238064 -37.5625 120.875 C-29.22486388 107.03330091 -29.30226088 92.07614657 -29.23826981 76.43772125 C-29.22634844 73.78040997 -29.20686918 71.12325177 -29.18515015 68.46600342 C-29.12393611 60.91830527 -29.06939045 53.37063167 -29.03613281 45.82275391 C-29.01517275 41.18805485 -28.97987787 36.55365097 -28.93537521 31.91912079 C-28.92124726 30.16014831 -28.91250003 28.40112381 -28.90932083 26.64209747 C-28.90440356 24.18458605 -28.88123134 21.72785927 -28.85400391 19.27050781 C-28.85851311 18.19031624 -28.85851311 18.19031624 -28.8631134 17.08830261 C-28.77294245 11.59868027 -27.46662136 7.51225202 -23.71875 3.44921875 C-23.1309375 2.97097656 -22.543125 2.49273437 -21.9375 2 C-21.3496875 1.50886719 -20.761875 1.01773437 -20.15625 0.51171875 C-14.58791926 -3.37345747 -5.93610049 -2.76720474 0 0 Z " fill="#000000" transform="translate(603.4375,376.6875)"/>
<path d="M0 0 C5.10182733 3.87821833 7.90425217 8.99744689 10.671875 14.6484375 C16.5017895 26.20924674 16.5017895 26.20924674 25.921875 34.4609375 C25.921875 35.1209375 25.921875 35.7809375 25.921875 36.4609375 C26.72818359 36.83798828 26.72818359 36.83798828 27.55078125 37.22265625 C30.4437688 38.73349159 33.11846855 40.50150416 35.859375 42.2734375 C52.50108007 52.72784196 71.80409644 56.29302596 91.1953125 52.80859375 C104.15001589 49.64460435 116.8036632 43.5791493 126.296875 34.0859375 C126.833125 33.5496875 127.369375 33.0134375 127.921875 32.4609375 C128.581875 32.4609375 129.241875 32.4609375 129.921875 32.4609375 C130.17582031 31.90277344 130.42976562 31.34460938 130.69140625 30.76953125 C132.09980187 28.1271128 133.78934037 25.90128236 135.609375 23.5234375 C138.69458667 19.36704926 141.1971286 15.1964644 143.546875 10.5859375 C146.70906071 4.52747715 149.29437365 1.51978962 155.234375 -1.8515625 C161.777277 -3.52532813 167.3051796 -3.09681702 173.203125 0.2734375 C177.81677038 3.46104703 179.94505758 7.77118755 181.5 13.0234375 C183.36643584 23.807289 176.0642889 35.02759645 170.14453125 43.5625 C150.98350226 70.19451498 124.23951201 87.08621145 91.921875 92.4609375 C61.93984998 96.5595861 32.23149121 88.77654227 7.671875 71.2109375 C-8.01311787 58.78739322 -26.77827049 39.26891567 -30.203125 18.6484375 C-30.38843127 13.10983911 -29.17080394 7.8731881 -25.4921875 3.6328125 C-17.7580874 -3.32450026 -9.36294975 -4.68147488 0 0 Z " fill="#000000" transform="translate(274.078125,338.5390625)"/>
<path d="M0 0 C6.04136357 4.54643432 9.96060907 11.50998336 11.21875 18.90234375 C11.55647463 23.67531931 11.58893032 28.43131533 11.59375 33.21484375 C11.61824219 34.48263672 11.64273438 35.75042969 11.66796875 37.05664062 C11.69946334 47.19264872 10.06792667 55.75552 2.99609375 63.3671875 C-3.88094889 69.30713862 -10.92801958 71.29444735 -19.83984375 71.17578125 C-28.35630449 70.38407839 -35.11251239 66.16021113 -40.78125 59.90234375 C-46.37558946 52.15134589 -45.99699138 44.55712057 -46.02148438 35.36816406 C-46.03115703 33.17343768 -46.06218857 30.97966186 -46.09375 28.78515625 C-46.18068082 17.60988419 -44.86547714 10.31735617 -36.97265625 1.88671875 C-26.41933253 -7.66958865 -11.70727712 -7.21435279 0 0 Z " fill="#000000" transform="translate(451.78125,192.09765625)"/>
<path d="M0 0 C5.79790026 4.69200447 9.24042251 10.14037572 10.734375 17.45703125 C10.97817923 21.80548986 11.00497422 26.15469455 11.02954102 30.5090332 C11.04102517 31.92384877 11.06142061 33.33862223 11.09106445 34.75317383 C11.32628439 45.99510986 10.17693679 54.46301565 2.37109375 62.95703125 C-3.78605054 68.59985561 -11.30911949 70.96803138 -19.546875 70.76953125 C-27.54033768 69.85074244 -35.02424389 66.66752189 -40.265625 60.45703125 C-45.99242799 51.88174031 -46.50102733 45.09094082 -46.56079102 34.88720703 C-46.5722573 33.5277257 -46.59262387 32.16828747 -46.62231445 30.80908203 C-46.83970635 20.83820228 -46.12895193 12.32939022 -40.015625 4.14453125 C-28.63843953 -6.97408182 -13.32433711 -9.07433303 0 0 Z " fill="#000000" transform="translate(283.265625,192.54296875)"/>
</svg>
