<?xml version="1.0" encoding="UTF-8"?>
<svg version="1.1" xmlns="http://www.w3.org/2000/svg" width="700" height="700">
<path d="M0 0 C1.16546392 0.71911604 2.31430516 1.46650311 3.4375 2.25 C4.324375 2.78625 5.21125 3.3225 6.125 3.875 C14.32908292 12.30081489 14.58541763 22.68301012 14.5793457 33.73999023 C14.58282013 34.77179413 14.58629456 35.80359802 14.58987427 36.8666687 C14.59720282 39.09829106 14.60256358 41.32992056 14.60616493 43.56155205 C14.61335959 47.09708878 14.62904733 50.63248908 14.64750671 54.16798401 C14.69984492 64.21719533 14.74796522 74.26632901 14.76342773 84.31567383 C14.7735173 90.47063685 14.80286105 96.62525164 14.84474754 102.78007698 C14.857042 105.12074206 14.86218166 107.46145633 14.85994911 109.80215263 C14.85759215 113.07868448 14.87979202 116.35421844 14.9074707 119.63061523 C14.90086929 120.59138474 14.89426788 121.55215424 14.88746643 122.54203796 C14.97925518 129.17677785 16.19488721 134.74189921 20.81384754 139.73903561 C27.07920622 145.27199228 33.28862921 147.37193947 41.44871807 147.38142776 C43.30724707 147.38718948 43.30724707 147.38718948 45.20332211 147.3930676 C46.58059106 147.39228736 47.95785995 147.39140857 49.33512878 147.39044189 C50.7964717 147.39302558 52.25781391 147.39603875 53.71915513 147.3994453 C57.74030446 147.40751821 61.76143594 147.40930503 65.78259242 147.41004276 C70.11743628 147.41189282 74.45227087 147.41943994 78.78710938 147.42617798 C88.26857811 147.43976412 97.75004261 147.44578652 107.23151946 147.45018864 C113.15140545 147.45295071 119.07128981 147.45718801 124.9911747 147.46169281 C141.38027309 147.47388608 157.76937018 147.48418513 174.15847301 147.4875679 C175.20757047 147.48778747 176.25666792 147.48800703 177.3375562 147.48823325 C178.3891712 147.48845153 179.44078621 147.48866981 180.52426833 147.4888947 C182.65525766 147.48933817 184.786247 147.48978473 186.91723633 147.49023438 C188.50280449 147.49056652 188.50280449 147.49056652 190.12040434 147.49090537 C207.24715146 147.49485312 224.37385603 147.51230618 241.50058671 147.5355939 C259.08262144 147.55930779 276.66463482 147.57176978 294.2466858 147.57293582 C304.11902675 147.57385258 313.99131225 147.57960522 323.86363792 147.59775543 C332.27055109 147.61315695 340.67739169 147.61827659 349.08431628 147.61001733 C353.37300305 147.60611095 357.66154369 147.60703981 361.95021248 147.62107468 C365.8790571 147.63381431 369.80764578 147.6326156 373.73649005 147.62048396 C375.15509702 147.61852707 376.57372213 147.62160511 377.99230363 147.63032833 C388.44607475 147.69052286 397.01518432 146.90950542 405.4375 140.25 C411.53335725 133.81548401 411.73309825 127.21961559 411.72460938 118.79760742 C411.73144241 117.75780228 411.73827545 116.71799713 411.74531555 115.64668274 C411.75887846 113.39432617 411.76794783 111.14193903 411.77302551 108.88954735 C411.78133217 105.32016226 411.80185498 101.75103085 411.82556152 98.18171692 C411.87374315 90.60034906 411.90669423 83.01895577 411.9375 75.4375 C411.97321896 66.66022633 412.01523635 57.88307661 412.07344055 49.10592079 C412.09343656 45.59795584 412.10181463 42.09008695 412.10974121 38.58207703 C412.12272121 36.41823992 412.13624263 34.25440596 412.15039062 32.09057617 C412.14940872 31.12248016 412.14842682 30.15438416 412.14741516 29.1569519 C412.23576078 19.41350038 413.35247324 11.36603344 420.4375 4.25 C428.3767847 -1.79826415 435.55449965 -2.56993919 445.4375 -1.75 C449.57548203 -0.43506896 452.83502821 1.84835214 456.4375 4.25 C456.4375 4.91 456.4375 5.57 456.4375 6.25 C457.0975 6.25 457.7575 6.25 458.4375 6.25 C462.87821043 13.60876285 464.16427153 19.43508212 464.06860352 27.96337891 C464.07933647 29.65340027 464.07933647 29.65340027 464.09028625 31.37756348 C464.10710126 35.0776509 464.08780332 38.77651383 464.06640625 42.4765625 C464.06723595 45.06953023 464.06969912 47.6624979 464.07371521 50.25546265 C464.07656881 55.6839931 464.062458 61.11207817 464.03442383 66.54052734 C464.00247458 72.77425254 464.00235399 79.00735088 464.0196386 85.24111998 C464.0356375 91.28212922 464.02857673 97.32285242 464.01170158 103.36387253 C464.00655744 105.91286082 464.0069552 108.4618671 464.01324654 111.01085281 C464.05058148 135.23711601 461.32384204 155.52747319 444.4375 174.25 C443.84582031 174.93449219 443.25414062 175.61898437 442.64453125 176.32421875 C430.89733871 189.07330404 413.38853023 197.4664531 396.0947082 198.43774486 C392.13581502 198.51309779 388.1794065 198.52664089 384.22006226 198.51742554 C382.68840678 198.52116721 381.15675322 198.52577078 379.62510264 198.53115618 C375.43717837 198.54333787 371.24933428 198.54313144 367.06139636 198.54076743 C362.53633071 198.54035803 358.01129034 198.55141017 353.48623657 198.56088257 C344.62821465 198.57746738 335.77021936 198.58299099 326.91218321 198.58410732 C319.70813076 198.58505906 312.50408706 198.58917564 305.30003738 198.59550858 C284.85460447 198.61311468 264.40919251 198.62234852 243.96375196 198.62084763 C242.86244721 198.62076772 241.76114246 198.6206878 240.62646484 198.62060547 C239.52380813 198.62052371 238.42115142 198.62044195 237.28508087 198.62035771 C219.42301027 198.61954515 201.56102407 198.63867684 183.69897787 198.6668822 C165.33813654 198.69564532 146.97733631 198.70942059 128.61647189 198.70769465 C118.31641552 198.7070319 108.01644761 198.71247371 97.71641159 198.73405075 C88.94531106 198.75230776 80.17433909 198.75657292 71.40322773 198.7430319 C66.9333479 198.73652481 62.46371438 198.73630277 57.99385834 198.7537384 C53.89149945 198.76957505 49.78957999 198.76649884 45.68723114 198.74917014 C44.21349806 198.74612333 42.7397313 198.74964371 41.26603799 198.76089029 C18.42144176 198.92350093 -0.14361565 191.22414233 -16.6875 175.5 C-37.20705733 154.43961713 -37.71770597 127.69336809 -37.765625 100.1171875 C-37.76845238 99.01535252 -37.77127975 97.91351753 -37.77419281 96.77829361 C-37.78910393 90.95717383 -37.79838669 85.13607836 -37.80273438 79.31494141 C-37.8082341 73.32553327 -37.83231702 67.3363507 -37.86070633 61.34701347 C-37.87937228 56.71602734 -37.88454023 52.08509543 -37.88607025 47.45407486 C-37.88908393 45.24620443 -37.89706868 43.03833466 -37.91025543 40.83050156 C-37.92741313 37.739529 -37.92541291 34.64910702 -37.91894531 31.55810547 C-37.9281601 30.65913544 -37.93737488 29.76016541 -37.9468689 28.83395386 C-37.88882076 19.92582157 -36.048349 10.7690247 -29.5625 4.25 C-21.1884124 -2.05924408 -9.90384179 -4.83808363 0 0 Z " fill="#000000" transform="translate(136.5625,351.75)"/>
<path d="M0 0 C1.15628906 -0.04898438 2.31257812 -0.09796875 3.50390625 -0.1484375 C15.05015617 1.38800489 22.43623699 9.65495272 30.2434082 17.53393555 C31.49680949 18.78055089 32.75126959 20.02610241 34.00669861 21.27067566 C37.39408809 24.63538191 40.76560318 28.0155781 44.13370538 31.39957786 C47.67124372 34.94983209 51.22103064 38.48780625 54.7688446 42.02778625 C60.72316218 47.97302384 66.66689793 53.92868775 72.60473633 59.89038086 C79.45621703 66.76906938 86.32552364 73.62956068 93.20436603 80.48087853 C99.12467502 86.37845056 105.03512571 92.28576954 110.93754262 98.20124847 C114.45636906 101.72784413 117.97842479 105.25103633 121.50942421 108.76544762 C124.8295421 112.07105337 128.13705967 115.38878369 131.43551064 118.71600533 C132.64333095 119.93040041 133.8553585 121.14062875 135.07200241 122.34618378 C142.40752598 129.62102041 149.29504459 136.54865154 151.06640625 147.1328125 C150.89227566 155.96225796 149.84330746 161.43143347 144.0625 168.125 C138.11857928 173.21978919 133.69691701 175.52676197 125.875 175.75 C124.71871094 175.79898438 123.56242187 175.84796875 122.37109375 175.8984375 C112.85983221 174.632788 106.27232355 168.9372738 99.77490234 162.2800293 C98.57302277 161.07924492 98.57302277 161.07924492 97.34686279 159.85420227 C94.72701137 157.23089454 92.12527446 154.5903839 89.5234375 151.94921875 C87.70036645 150.11681276 85.87618123 148.28551465 84.05093384 146.45527649 C79.75659697 142.14386293 75.47356809 137.82151214 71.1959368 133.493532 C66.3206721 128.56215149 61.43100122 123.64516083 56.54013896 118.72925699 C46.48995219 108.62697302 36.45775292 98.50697116 26.4375 88.375 C26.43695523 89.62329275 26.43641047 90.8715855 26.43584919 92.15770531 C26.42179541 121.81082495 26.38200089 151.46378874 26.31064438 181.11682066 C26.30187796 184.76912349 26.29332809 188.42142681 26.28491211 192.07373047 C26.28323305 192.80081737 26.28155398 193.52790427 26.27982404 194.27702411 C26.25317731 206.03935382 26.24406063 217.80163479 26.24145857 229.56399159 C26.23839568 241.63942041 26.21641028 253.71470866 26.17697543 265.79007399 C26.15537358 272.57007441 26.14242379 279.34985918 26.15134621 286.12989426 C26.15888933 292.51410957 26.14305163 298.8978438 26.10943985 305.28197098 C26.10120994 307.62241448 26.1014526 309.96290584 26.11090279 312.30334473 C26.12255161 315.50588395 26.10336352 318.70685356 26.07673645 321.90927124 C26.08740971 322.82953421 26.09808297 323.74979718 26.10907966 324.69794691 C26.00491252 331.44049972 24.23189383 336.76514647 20.4375 342.375 C13.32838194 349.14752829 6.75021026 350.91931003 -2.98046875 350.74609375 C-9.24908942 350.09667285 -14.03744865 347.98421973 -18.4375 343.4375 C-24.97603955 335.13858442 -25.70963904 326.90362386 -25.72071838 316.65603638 C-25.72565636 315.68310792 -25.73059434 314.71017946 -25.73568195 313.70776832 C-25.75102688 310.45117666 -25.75940946 307.19460467 -25.76782227 303.93798828 C-25.77740315 301.60215584 -25.78741335 299.26632512 -25.79782104 296.93049622 C-25.82485338 290.59015568 -25.84587203 284.24980771 -25.86582303 277.90944147 C-25.88547713 271.95437921 -25.90962118 265.99933658 -25.93374526 260.044291 C-25.98137323 248.25121973 -26.02465036 236.45813669 -26.06518555 224.66503906 C-26.1045649 213.21092818 -26.14599696 201.75682775 -26.19018555 190.30273438 C-26.19290982 189.59639276 -26.19563409 188.89005115 -26.19844092 188.16230525 C-26.2121208 184.61870404 -26.22584099 181.07510299 -26.23958123 177.53150201 C-26.35347065 148.14602347 -26.46022403 118.76052125 -26.5625 89.375 C-27.09676605 89.91370728 -27.6310321 90.45241455 -28.18148804 91.00744629 C-33.20880377 96.07477853 -38.24086916 101.13732284 -43.27838707 106.19451141 C-45.86827097 108.79484802 -48.45625543 111.39701871 -51.04003906 114.00341797 C-53.53197726 116.51703164 -56.02872018 119.02577759 -58.52891922 121.53117371 C-59.48358788 122.48954767 -60.43648982 123.44968478 -61.3876152 124.41157532 C-62.71649745 125.75490157 -64.05217707 127.09149338 -65.38818359 128.42773438 C-66.14763275 129.19162476 -66.90708191 129.95551514 -67.68954468 130.74255371 C-69.5625 132.375 -69.5625 132.375 -71.5625 132.375 C-71.5625 133.035 -71.5625 133.695 -71.5625 134.375 C-72.2225 134.375 -72.8825 134.375 -73.5625 134.375 C-73.5625 135.035 -73.5625 135.695 -73.5625 136.375 C-74.2225 136.375 -74.8825 136.375 -75.5625 136.375 C-75.5625 137.035 -75.5625 137.695 -75.5625 138.375 C-76.2225 138.375 -76.8825 138.375 -77.5625 138.375 C-77.5625 139.035 -77.5625 139.695 -77.5625 140.375 C-78.2225 140.375 -78.8825 140.375 -79.5625 140.375 C-79.5625 141.035 -79.5625 141.695 -79.5625 142.375 C-80.2225 142.375 -80.8825 142.375 -81.5625 142.375 C-81.8925 143.365 -82.2225 144.355 -82.5625 145.375 C-83.2225 145.375 -83.8825 145.375 -84.5625 145.375 C-84.5625 146.035 -84.5625 146.695 -84.5625 147.375 C-85.2225 147.375 -85.8825 147.375 -86.5625 147.375 C-86.830625 148.014375 -87.09875 148.65375 -87.375 149.3125 C-88.5625 151.375 -88.5625 151.375 -91.5625 152.375 C-91.5625 153.035 -91.5625 153.695 -91.5625 154.375 C-92.2225 154.375 -92.8825 154.375 -93.5625 154.375 C-93.7790625 154.91253906 -93.995625 155.45007813 -94.21875 156.00390625 C-98.46088068 163.48929381 -106.96644705 171.28528925 -114.8671875 174.6640625 C-123.36563236 176.90568129 -131.78368461 176.43115628 -139.4375 172 C-144.40033578 168.20489029 -147.63210867 163.28736449 -149.5625 157.375 C-149.93359375 154.17578125 -149.93359375 154.17578125 -150 150.6875 C-150.03996094 149.54925781 -150.07992187 148.41101563 -150.12109375 147.23828125 C-148.56112054 136.44937561 -141.33376658 129.43514655 -133.86328125 122.1171875 C-132.82051643 121.07868195 -131.77871864 120.03920459 -130.73783875 118.99880981 C-128.57099782 116.83808994 -126.39622938 114.68582425 -124.21459961 112.54003906 C-121.41475983 109.7858377 -118.63076919 107.01625664 -115.85181904 104.24099541 C-113.70883238 102.10242515 -111.56046524 99.96933421 -109.4101162 97.8381691 C-108.38077945 96.8177183 -107.35251633 95.79618336 -106.32534218 94.77355576 C-104.89690303 93.35411775 -103.46096631 91.94223672 -102.0246582 90.53076172 C-100.80151665 89.32357986 -100.80151665 89.32357986 -99.55366516 88.0920105 C-97.5625 86.375 -97.5625 86.375 -95.5625 86.375 C-95.29585855 85.78373542 -95.02921711 85.19247084 -94.75449562 84.58328915 C-93.53784521 82.32932458 -92.29216212 80.85071202 -90.49057007 79.04237366 C-89.54457443 78.08575081 -89.54457443 78.08575081 -88.57946777 77.10980225 C-87.88857056 76.42138245 -87.19767334 75.73296265 -86.48583984 75.02368164 C-85.75712677 74.28985764 -85.0284137 73.55603363 -84.27761841 72.79997253 C-81.86471988 70.37316379 -79.44445104 67.95386762 -77.0234375 65.53515625 C-75.34130135 63.84913288 -73.6593892 62.16288601 -71.97769165 60.47642517 C-68.44865855 56.93992597 -64.91576876 53.40733343 -61.38037109 49.87719727 C-56.85940341 45.36201295 -52.34987573 40.83559436 -47.84343529 36.30591679 C-44.37074317 32.81845881 -40.89111223 29.33798881 -37.40947342 25.85946465 C-35.74463433 24.1941134 -34.08214668 22.52640788 -32.42210007 20.85627937 C-30.0937082 18.51549105 -27.75589344 16.18452111 -25.41552734 13.85571289 C-24.73677551 13.16931732 -24.05802368 12.48292175 -23.35870361 11.77572632 C-16.38368015 4.87625305 -10.03949508 0.28652785 0 0 Z " fill="#000000" transform="translate(349.5625,49.625)"/>
</svg>
